{
  "accessors": [
    {
      "bufferView": 2,
      "componentType": 5126,
      "count": 27898,
      "max": [
        0.9235628843307495,
        1.7662550210952759,
        -0.12377090007066727
      ],
      "min": [
        -0.9235625267028809,
        -1.7998449802398682,
        -0.7623996138572693
      ],
      "type": "VEC3"
    },
    {
      "bufferView": 2,
      "byteOffset": 334776,
      "componentType": 5126,
      "count": 27898,
      "max": [
        1.0,
        0.9999939203262329,
        0.9999971389770508
      ],
      "min": [
        -1.0,
        -0.9999939203262329,
        -0.9999939203262329
      ],
      "type": "VEC3"
    },
    {
      "bufferView": 3,
      "componentType": 5126,
      "count": 27898,
      "max": [
        0.9999927878379822,
        0.9999947547912598,
        0.9996440410614014,
        1.0
      ],
      "min": [
        -0.9999927878379822,
        -0.999993085861206,
        -0.9999891519546509,
        -1.0
      ],
      "type": "VEC4"
    },
    {
      "bufferView": 1,
      "componentType": 5126,
      "count": 27898,
      "max": [
        19.815420150756836,
        -19.291549682617188
      ],
      "min": [
        0.2830178141593933,
        -38.73426055908203
      ],
      "type": "VEC2"
    },
    {
      "bufferView": 1,
      "byteOffset": 223184,
      "componentType": 5126,
      "count": 27898,
      "max": [
        19.815420150756836,
        -19.291549682617188
      ],
      "min": [
        0.2830178141593933,
        -38.73426055908203
      ],
      "type": "VEC2"
    },
    {
      "bufferView": 1,
      "byteOffset": 446368,
      "componentType": 5126,
      "count": 27898,
      "max": [
        19.815420150756836,
        -19.291549682617188
      ],
      "min": [
        0.2830178141593933,
        -38.73426055908203
      ],
      "type": "VEC2"
    },
    {
      "bufferView": 1,
      "byteOffset": 669552,
      "componentType": 5126,
      "count": 27898,
      "max": [
        19.815420150756836,
        -19.291549682617188
      ],
      "min": [
        0.2830178141593933,
        -38.73426055908203
      ],
      "type": "VEC2"
    },
    {
      "bufferView": 0,
      "componentType": 5125,
      "count": 77952,
      "type": "SCALAR"
    },
    {
      "bufferView": 2,
      "byteOffset": 669552,
      "componentType": 5126,
      "count": 7650,
      "max": [
        0.8907660841941833,
        1.8932180404663086,
        0.020483020693063736
      ],
      "min": [
        -0.8907654285430908,
        -1.9466090202331543,
        -0.9091513156890869
      ],
      "type": "VEC3"
    },
    {
      "bufferView": 2,
      "byteOffset": 761352,
      "componentType": 5126,
      "count": 7650,
      "max": [
        0.9999696016311646,
        0.999993085861206,
        0.9999921321868896
      ],
      "min": [
        -0.9999696016311646,
        -0.9999927282333374,
        -0.9999934434890747
      ],
      "type": "VEC3"
    },
    {
      "bufferView": 1,
      "byteOffset": 892736,
      "componentType": 5126,
      "count": 7650,
      "max": [
        0.8273621797561646,
        -0.004063963890075684
      ],
      "min": [
        0.0115448497235775,
        -0.9959369897842407
      ],
      "type": "VEC2"
    },
    {
      "bufferView": 1,
      "byteOffset": 953936,
      "componentType": 5126,
      "count": 7650,
      "max": [
        0.8273621797561646,
        -0.004063963890075684
      ],
      "min": [
        0.0115448497235775,
        -0.9959369897842407
      ],
      "type": "VEC2"
    },
    {
      "bufferView": 0,
      "byteOffset": 311808,
      "componentType": 5125,
      "count": 39312,
      "type": "SCALAR"
    },
    {
      "bufferView": 2,
      "byteOffset": 853152,
      "componentType": 5126,
      "count": 10167,
      "max": [
        0.43724051117897034,
        -0.022889550775289536,
        -0.4177975058555603
      ],
      "min": [
        -0.4372408986091614,
        -3.0075418949127197,
        -1.04544198513031
      ],
      "type": "VEC3"
    },
    {
      "bufferView": 2,
      "byteOffset": 975156,
      "componentType": 5126,
      "count": 10167,
      "max": [
        1.0,
        1.0,
        1.0
      ],
      "min": [
        -1.0,
        -1.0,
        -1.0
      ],
      "type": "VEC3"
    },
    {
      "bufferView": 3,
      "byteOffset": 446368,
      "componentType": 5126,
      "count": 10167,
      "max": [
        1.0,
        1.0,
        1.0,
        1.0
      ],
      "min": [
        -1.0,
        -1.0,
        -1.0,
        -1.0
      ],
      "type": "VEC4"
    },
    {
      "bufferView": 1,
      "byteOffset": 1015136,
      "componentType": 5126,
      "count": 10167,
      "max": [
        48.10332107543945,
        -50.65496063232422
      ],
      "min": [
        4.605146884918213,
        -92.17017364501953
      ],
      "type": "VEC2"
    },
    {
      "bufferView": 1,
      "byteOffset": 1096472,
      "componentType": 5126,
      "count": 10167,
      "max": [
        48.10332107543945,
        -50.65496063232422
      ],
      "min": [
        4.605146884918213,
        -92.17017364501953
      ],
      "type": "VEC2"
    },
    {
      "bufferView": 1,
      "byteOffset": 1177808,
      "componentType": 5126,
      "count": 10167,
      "max": [
        48.10332107543945,
        -50.65496063232422
      ],
      "min": [
        4.605146884918213,
        -92.17017364501953
      ],
      "type": "VEC2"
    },
    {
      "bufferView": 1,
      "byteOffset": 1259144,
      "componentType": 5126,
      "count": 10167,
      "max": [
        48.10332107543945,
        -50.65496063232422
      ],
      "min": [
        4.605146884918213,
        -92.17017364501953
      ],
      "type": "VEC2"
    },
    {
      "bufferView": 0,
      "byteOffset": 469056,
      "componentType": 5125,
      "count": 33744,
      "type": "SCALAR"
    },
    {
      "bufferView": 2,
      "byteOffset": 1097160,
      "componentType": 5126,
      "count": 310,
      "max": [
        0.06669341772794724,
        -0.006837702821940184,
        -0.9805988073348999
      ],
      "min": [
        -0.06669341772794724,
        -0.15516920387744904,
        -1.0418959856033325
      ],
      "type": "VEC3"
    },
    {
      "bufferView": 2,
      "byteOffset": 1100880,
      "componentType": 5126,
      "count": 310,
      "max": [
        1.0,
        1.0,
        0.9999680519104004
      ],
      "min": [
        -1.0,
        -1.0,
        -1.0
      ],
      "type": "VEC3"
    },
    {
      "bufferView": 1,
      "byteOffset": 1340480,
      "componentType": 5126,
      "count": 310,
      "max": [
        0.4363430142402649,
        0.0
      ],
      "min": [
        0.0,
        -0.7006659507751465
      ],
      "type": "VEC2"
    },
    {
      "bufferView": 0,
      "byteOffset": 604032,
      "componentType": 5125,
      "count": 684,
      "type": "SCALAR"
    },
    {
      "bufferView": 2,
      "byteOffset": 1104600,
      "componentType": 5126,
      "count": 16,
      "max": [
        0.32207590341567993,
        0.8631051778793335,
        -0.7053819894790649
      ],
      "min": [
        -0.11846049875020981,
        0.8631051778793335,
        -0.7776201963424683
      ],
      "type": "VEC3"
    },
    {
      "bufferView": 2,
      "byteOffset": 1104792,
      "componentType": 5126,
      "count": 16,
      "max": [
        0.0,
        -1.0,
        0.0
      ],
      "min": [
        0.0,
        -1.0,
        0.0
      ],
      "type": "VEC3"
    },
    {
      "bufferView": 1,
      "byteOffset": 1342960,
      "componentType": 5126,
      "count": 16,
      "max": [
        0.8544507026672363,
        -0.0027129650115966797
      ],
      "min": [
        0.10256309807300568,
        -0.31207001209259033
      ],
      "type": "VEC2"
    },
    {
      "bufferView": 0,
      "byteOffset": 606768,
      "componentType": 5125,
      "count": 24,
      "type": "SCALAR"
    },
    {
      "bufferView": 2,
      "byteOffset": 1104984,
      "componentType": 5126,
      "count": 35773,
      "max": [
        0.986861526966095,
        2.6607229709625244,
        -0.12056750059127808
      ],
      "min": [
        -0.9874204993247986,
        -3.1225459575653076,
        -1.0502580404281616
      ],
      "type": "VEC3"
    },
    {
      "bufferView": 2,
      "byteOffset": 1534260,
      "componentType": 5126,
      "count": 35773,
      "max": [
        0.9999991655349731,
        1.0,
        1.0
      ],
      "min": [
        -0.9999992847442627,
        -0.9999995231628418,
        -0.9999990463256836
      ],
      "type": "VEC3"
    },
    {
      "bufferView": 3,
      "byteOffset": 609040,
      "componentType": 5126,
      "count": 35773,
      "max": [
        1.0,
        1.0,
        1.0,
        1.0
      ],
      "min": [
        -1.0,
        -1.0,
        -1.0,
        1.0
      ],
      "type": "VEC4"
    },
    {
      "bufferView": 1,
      "byteOffset": 1343088,
      "componentType": 5126,
      "count": 35773,
      "max": [
        0.0,
        1.0
      ],
      "min": [
        0.0,
        1.0
      ],
      "type": "VEC2"
    },
    {
      "bufferView": 1,
      "byteOffset": 1629272,
      "componentType": 5126,
      "count": 35773,
      "max": [
        0.0,
        1.0
      ],
      "min": [
        0.0,
        1.0
      ],
      "type": "VEC2"
    },
    {
      "bufferView": 1,
      "byteOffset": 1915456,
      "componentType": 5126,
      "count": 35773,
      "max": [
        0.0,
        1.0
      ],
      "min": [
        0.0,
        1.0
      ],
      "type": "VEC2"
    },
    {
      "bufferView": 1,
      "byteOffset": 2201640,
      "componentType": 5126,
      "count": 35773,
      "max": [
        0.0,
        1.0
      ],
      "min": [
        0.0,
        1.0
      ],
      "type": "VEC2"
    },
    {
      "bufferView": 0,
      "byteOffset": 606864,
      "componentType": 5125,
      "count": 193041,
      "type": "SCALAR"
    },
    {
      "bufferView": 2,
      "byteOffset": 1963536,
      "componentType": 5126,
      "count": 831,
      "max": [
        0.979056179523468,
        2.639862060546875,
        -0.12221089750528336
      ],
      "min": [
        -0.9790555238723755,
        -3.0709469318389893,
        -0.9152721166610718
      ],
      "type": "VEC3"
    },
    {
      "bufferView": 2,
      "byteOffset": 1973508,
      "componentType": 5126,
      "count": 831,
      "max": [
        0.9995426535606384,
        1.0,
        1.0
      ],
      "min": [
        -0.999709963798523,
        -0.9999998807907104,
        -0.9999979734420776
      ],
      "type": "VEC3"
    },
    {
      "bufferView": 1,
      "byteOffset": 2487824,
      "componentType": 5126,
      "count": 831,
      "max": [
        0.9765629768371582,
        -0.021304011344909668
      ],
      "min": [
        0.012606870383024216,
        -1.7073969841003418
      ],
      "type": "VEC2"
    },
    {
      "bufferView": 0,
      "byteOffset": 1379028,
      "componentType": 5125,
      "count": 2556,
      "type": "SCALAR"
    },
    {
      "bufferView": 2,
      "byteOffset": 1983480,
      "componentType": 5126,
      "count": 72,
      "max": [
        0.9859071969985962,
        1.9836790561676025,
        -0.30448418855667114
      ],
      "min": [
        -0.9859067797660828,
        -2.13460111618042,
        -0.794593870639801
      ],
      "type": "VEC3"
    },
    {
      "bufferView": 2,
      "byteOffset": 1984344,
      "componentType": 5126,
      "count": 72,
      "max": [
        0.989432156085968,
        0.1415931135416031,
        0.12190095335245132
      ],
      "min": [
        -0.9894357919692993,
        -0.14060112833976746,
        -0.9777013063430786
      ],
      "type": "VEC3"
    },
    {
      "bufferView": 1,
      "byteOffset": 2494472,
      "componentType": 5126,
      "count": 72,
      "max": [
        0.994476318359375,
        -0.5138720273971558
      ],
      "min": [
        0.2655639946460724,
        -1.390625
      ],
      "type": "VEC2"
    },
    {
      "bufferView": 0,
      "byteOffset": 1389252,
      "componentType": 5125,
      "count": 108,
      "type": "SCALAR"
    },
    {
      "bufferView": 2,
      "byteOffset": 1985208,
      "componentType": 5126,
      "count": 28,
      "max": [
        0.2882992923259735,
        2.334609031677246,
        -0.4788411855697632
      ],
      "min": [
        -0.2366762012243271,
        2.1783549785614014,
        -0.5691977739334106
      ],
      "type": "VEC3"
    },
    {
      "bufferView": 2,
      "byteOffset": 1985544,
      "componentType": 5126,
      "count": 28,
      "max": [
        0.12290089577436447,
        0.44640669226646423,
        -0.8875064253807068
      ],
      "min": [
        -0.097401462495327,
        0.3773944675922394,
        -0.9242923259735107
      ],
      "type": "VEC3"
    },
    {
      "bufferView": 1,
      "byteOffset": 2495048,
      "componentType": 5126,
      "count": 28,
      "max": [
        1.0,
        -0.3282710313796997
      ],
      "min": [
        5.066394805908203e-07,
        -0.995826005935669
      ],
      "type": "VEC2"
    },
    {
      "bufferView": 0,
      "byteOffset": 1389684,
      "componentType": 5125,
      "count": 108,
      "type": "SCALAR"
    },
    {
      "bufferView": 2,
      "byteOffset": 1985880,
      "componentType": 5126,
      "count": 5327,
      "max": [
        0.22179460525512695,
        0.9666302800178528,
        -0.807166576385498
      ],
      "min": [
        -0.22173430025577545,
        0.12388289719820023,
        -1.0679609775543213
      ],
      "type": "VEC3"
    },
    {
      "bufferView": 2,
      "byteOffset": 2049804,
      "componentType": 5126,
      "count": 5327,
      "max": [
        0.9999996423721313,
        0.015699908137321472,
        0.6208932399749756
      ],
      "min": [
        -0.9999996423721313,
        -1.0,
        -0.9934210181236267
      ],
      "type": "VEC3"
    },
    {
      "bufferView": 1,
      "byteOffset": 2495272,
      "componentType": 5126,
      "count": 5327,
      "max": [
        0.938848078250885,
        -0.043966054916381836
      ],
      "min": [
        0.06165815144777298,
        -0.9560339450836182
      ],
      "type": "VEC2"
    },
    {
      "bufferView": 0,
      "byteOffset": 1390116,
      "componentType": 5125,
      "count": 27270,
      "type": "SCALAR"
    },
    {
      "bufferView": 2,
      "byteOffset": 2113728,
      "componentType": 5126,
      "count": 2020,
      "max": [
        0.2710053026676178,
        1.1835249662399292,
        -0.3152562081813812
      ],
      "min": [
        -0.3461470901966095,
        0.6553919911384583,
        -0.8962993025779724
      ],
      "type": "VEC3"
    },
    {
      "bufferView": 2,
      "byteOffset": 2137968,
      "componentType": 5126,
      "count": 2020,
      "max": [
        0.9999816417694092,
        1.0,
        0.9998124837875366
      ],
      "min": [
        -0.9999889135360718,
        -1.0,
        -1.0
      ],
      "type": "VEC3"
    },
    {
      "bufferView": 3,
      "byteOffset": 1181408,
      "componentType": 5126,
      "count": 2020,
      "max": [
        1.0,
        1.0,
        1.0,
        1.0
      ],
      "min": [
        -1.0,
        -1.0,
        -1.0,
        1.0
      ],
      "type": "VEC4"
    },
    {
      "bufferView": 1,
      "byteOffset": 2537888,
      "componentType": 5126,
      "count": 2020,
      "max": [
        0.0,
        1.0
      ],
      "min": [
        0.0,
        1.0
      ],
      "type": "VEC2"
    },
    {
      "bufferView": 1,
      "byteOffset": 2554048,
      "componentType": 5126,
      "count": 2020,
      "max": [
        0.0,
        1.0
      ],
      "min": [
        0.0,
        1.0
      ],
      "type": "VEC2"
    },
    {
      "bufferView": 1,
      "byteOffset": 2570208,
      "componentType": 5126,
      "count": 2020,
      "max": [
        0.0,
        1.0
      ],
      "min": [
        0.0,
        1.0
      ],
      "type": "VEC2"
    },
    {
      "bufferView": 0,
      "byteOffset": 1499196,
      "componentType": 5125,
      "count": 7863,
      "type": "SCALAR"
    },
    {
      "bufferView": 2,
      "byteOffset": 2162208,
      "componentType": 5126,
      "count": 1114,
      "max": [
        0.2598611116409302,
        0.7357770800590515,
        -0.3315669894218445
      ],
      "min": [
        -0.2598611116409302,
        0.140161395072937,
        -0.9120085835456848
      ],
      "type": "VEC3"
    },
    {
      "bufferView": 2,
      "byteOffset": 2175576,
      "componentType": 5126,
      "count": 1114,
      "max": [
        0.99992436170578,
        0.9974812269210815,
        0.9998704195022583
      ],
      "min": [
        -0.9999243021011353,
        -0.9948750734329224,
        -0.9999268054962158
      ],
      "type": "VEC3"
    },
    {
      "bufferView": 1,
      "byteOffset": 2586368,
      "componentType": 5126,
      "count": 1114,
      "max": [
        0.8007379770278931,
        158.71429443359375
      ],
      "min": [
        0.16677430272102356,
        -159.70460510253906
      ],
      "type": "VEC2"
    },
    {
      "bufferView": 1,
      "byteOffset": 2595280,
      "componentType": 5126,
      "count": 1114,
      "max": [
        0.8007379770278931,
        158.71429443359375
      ],
      "min": [
        0.16677430272102356,
        -159.70460510253906
      ],
      "type": "VEC2"
    },
    {
      "bufferView": 0,
      "byteOffset": 1530648,
      "componentType": 5125,
      "count": 3264,
      "type": "SCALAR"
    },
    {
      "bufferView": 2,
      "byteOffset": 2188944,
      "componentType": 5126,
      "count": 11456,
      "max": [
        0.42971599102020264,
        1.3821439743041992,
        -0.18904930353164673
      ],
      "min": [
        -0.42971599102020264,
        -0.0023586449678987265,
        -0.9037163853645325
      ],
      "type": "VEC3"
    },
    {
      "bufferView": 2,
      "byteOffset": 2326416,
      "componentType": 5126,
      "count": 11456,
      "max": [
        1.0,
        1.0,
        1.0
      ],
      "min": [
        -1.0,
        -1.0,
        -1.0
      ],
      "type": "VEC3"
    },
    {
      "bufferView": 3,
      "byteOffset": 1213728,
      "componentType": 5126,
      "count": 11456,
      "max": [
        1.0,
        1.0,
        1.0,
        1.0
      ],
      "min": [
        -1.0,
        -1.0,
        -1.0,
        -1.0
      ],
      "type": "VEC4"
    },
    {
      "bufferView": 1,
      "byteOffset": 2604192,
      "componentType": 5126,
      "count": 11456,
      "max": [
        37.623870849609375,
        -55.0742301940918
      ],
      "min": [
        20.72279930114746,
        -78.66487121582031
      ],
      "type": "VEC2"
    },
    {
      "bufferView": 1,
      "byteOffset": 2695840,
      "componentType": 5126,
      "count": 11456,
      "max": [
        37.623870849609375,
        -55.0742301940918
      ],
      "min": [
        20.72279930114746,
        -78.66487121582031
      ],
      "type": "VEC2"
    },
    {
      "bufferView": 1,
      "byteOffset": 2787488,
      "componentType": 5126,
      "count": 11456,
      "max": [
        37.623870849609375,
        -55.0742301940918
      ],
      "min": [
        20.72279930114746,
        -78.66487121582031
      ],
      "type": "VEC2"
    },
    {
      "bufferView": 0,
      "byteOffset": 1543704,
      "componentType": 5125,
      "count": 45504,
      "type": "SCALAR"
    },
    {
      "bufferView": 2,
      "byteOffset": 2463888,
      "componentType": 5126,
      "count": 2691,
      "max": [
        0.2053792029619217,
        0.7494310140609741,
        -0.5646209716796875
      ],
      "min": [
        -0.2053792029619217,
        0.552058219909668,
        -0.9327620267868042
      ],
      "type": "VEC3"
    },
    {
      "bufferView": 2,
      "byteOffset": 2496180,
      "componentType": 5126,
      "count": 2691,
      "max": [
        1.0,
        0.9983223080635071,
        0.9998717308044434
      ],
      "min": [
        -1.0,
        -0.9999966621398926,
        -0.9994996190071106
      ],
      "type": "VEC3"
    },
    {
      "bufferView": 3,
      "byteOffset": 1397024,
      "componentType": 5126,
      "count": 2691,
      "max": [
        1.0,
        0.9957945346832275,
        0.9967604875564575,
        -1.0
      ],
      "min": [
        -1.0,
        -0.999615490436554,
        -0.9932904243469238,
        -1.0
      ],
      "type": "VEC4"
    },
    {
      "bufferView": 1,
      "byteOffset": 2879136,
      "componentType": 5126,
      "count": 2691,
      "max": [
        24.918989181518555,
        -24.241119384765625
      ],
      "min": [
        0.0810084193944931,
        -26.395259857177734
      ],
      "type": "VEC2"
    },
    {
      "bufferView": 1,
      "byteOffset": 2900664,
      "componentType": 5126,
      "count": 2691,
      "max": [
        24.918989181518555,
        -24.241119384765625
      ],
      "min": [
        0.0810084193944931,
        -26.395259857177734
      ],
      "type": "VEC2"
    },
    {
      "bufferView": 1,
      "byteOffset": 2922192,
      "componentType": 5126,
      "count": 2691,
      "max": [
        24.918989181518555,
        -24.241119384765625
      ],
      "min": [
        0.0810084193944931,
        -26.395259857177734
      ],
      "type": "VEC2"
    },
    {
      "bufferView": 1,
      "byteOffset": 2943720,
      "componentType": 5126,
      "count": 2691,
      "max": [
        24.918989181518555,
        -24.241119384765625
      ],
      "min": [
        0.0810084193944931,
        -26.395259857177734
      ],
      "type": "VEC2"
    },
    {
      "bufferView": 0,
      "byteOffset": 1725720,
      "componentType": 5125,
      "count": 14304,
      "type": "SCALAR"
    },
    {
      "bufferView": 2,
      "byteOffset": 2528472,
      "componentType": 5126,
      "count": 382,
      "max": [
        0.19499999284744263,
        0.7421759963035583,
        -0.5734657049179077
      ],
      "min": [
        -0.19499999284744263,
        0.5624580979347229,
        -0.9223148226737976
      ],
      "type": "VEC3"
    },
    {
      "bufferView": 2,
      "byteOffset": 2533056,
      "componentType": 5126,
      "count": 382,
      "max": [
        0.9996129870414734,
        0.9598110318183899,
        0.9482847452163696
      ],
      "min": [
        -0.9996129870414734,
        -0.9598360657691956,
        -0.9482547640800476
      ],
      "type": "VEC3"
    },
    {
      "bufferView": 3,
      "byteOffset": 1440080,
      "componentType": 5126,
      "count": 382,
      "max": [
        0.9723821878433228,
        0.995685338973999,
        0.9479995965957642,
        -1.0
      ],
      "min": [
        -0.8324764370918274,
        -0.9227116107940674,
        -0.9804234504699707,
        -1.0
      ],
      "type": "VEC4"
    },
    {
      "bufferView": 1,
      "byteOffset": 2965248,
      "componentType": 5126,
      "count": 382,
      "max": [
        7.827381134033203,
        -31.043720245361328
      ],
      "min": [
        0.43388310074806213,
        -39.961570739746094
      ],
      "type": "VEC2"
    },
    {
      "bufferView": 1,
      "byteOffset": 2968304,
      "componentType": 5126,
      "count": 382,
      "max": [
        7.827381134033203,
        -31.043720245361328
      ],
      "min": [
        0.43388310074806213,
        -39.961570739746094
      ],
      "type": "VEC2"
    },
    {
      "bufferView": 1,
      "byteOffset": 2971360,
      "componentType": 5126,
      "count": 382,
      "max": [
        7.827381134033203,
        -31.043720245361328
      ],
      "min": [
        0.43388310074806213,
        -39.961570739746094
      ],
      "type": "VEC2"
    },
    {
      "bufferView": 1,
      "byteOffset": 2974416,
      "componentType": 5126,
      "count": 382,
      "max": [
        7.827381134033203,
        -31.043720245361328
      ],
      "min": [
        0.43388310074806213,
        -39.961570739746094
      ],
      "type": "VEC2"
    },
    {
      "bufferView": 0,
      "byteOffset": 1782936,
      "componentType": 5125,
      "count": 1824,
      "type": "SCALAR"
    },
    {
      "bufferView": 2,
      "byteOffset": 2537640,
      "componentType": 5126,
      "count": 10964,
      "max": [
        0.4559352993965149,
        1.5621769428253174,
        -0.12347009778022766
      ],
      "min": [
        -0.4559352993965149,
        0.004627259913831949,
        -0.7969189882278442
      ],
      "type": "VEC3"
    },
    {
      "bufferView": 2,
      "byteOffset": 2669208,
      "componentType": 5126,
      "count": 10964,
      "max": [
        1.0,
        1.0,
        1.0
      ],
      "min": [
        -1.0,
        -1.0,
        -1.0
      ],
      "type": "VEC3"
    },
    {
      "bufferView": 3,
      "byteOffset": 1446192,
      "componentType": 5126,
      "count": 10964,
      "max": [
        1.0,
        0.9999939203262329,
        1.0,
        1.0
      ],
      "min": [
        -1.0,
        -1.0,
        -1.0,
        -1.0
      ],
      "type": "VEC4"
    },
    {
      "bufferView": 1,
      "byteOffset": 2977472,
      "componentType": 5126,
      "count": 10964,
      "max": [
        29.588289260864258,
        -29.146209716796875
      ],
      "min": [
        0.6309881806373596,
        -58.853790283203125
      ],
      "type": "VEC2"
    },
    {
      "bufferView": 1,
      "byteOffset": 3065184,
      "componentType": 5126,
      "count": 10964,
      "max": [
        29.588289260864258,
        -29.146209716796875
      ],
      "min": [
        0.6309881806373596,
        -58.853790283203125
      ],
      "type": "VEC2"
    },
    {
      "bufferView": 1,
      "byteOffset": 3152896,
      "componentType": 5126,
      "count": 10964,
      "max": [
        29.588289260864258,
        -29.146209716796875
      ],
      "min": [
        0.6309881806373596,
        -58.853790283203125
      ],
      "type": "VEC2"
    },
    {
      "bufferView": 0,
      "byteOffset": 1790232,
      "componentType": 5125,
      "count": 41967,
      "type": "SCALAR"
    },
    {
      "bufferView": 2,
      "byteOffset": 2800776,
      "componentType": 5126,
      "count": 1346,
      "max": [
        0.0639360100030899,
        1.5584590435028076,
        -0.22381509840488434
      ],
      "min": [
        -0.36649608612060547,
        0.6071661114692688,
        -0.706132709980011
      ],
      "type": "VEC3"
    },
    {
      "bufferView": 2,
      "byteOffset": 2816928,
      "componentType": 5126,
      "count": 1346,
      "max": [
        1.0,
        1.0,
        1.0
      ],
      "min": [
        -1.0,
        -1.0,
        -1.0
      ],
      "type": "VEC3"
    },
    {
      "bufferView": 3,
      "byteOffset": 1621616,
      "componentType": 5126,
      "count": 1346,
      "max": [
        1.0,
        0.9997957944869995,
        1.0,
        -1.0
      ],
      "min": [
        -0.9999998807907104,
        -1.0,
        -1.0,
        -1.0
      ],
      "type": "VEC4"
    },
    {
      "bufferView": 1,
      "byteOffset": 3240608,
      "componentType": 5126,
      "count": 1346,
      "max": [
        7.693644046783447,
        -40.216060638427734
      ],
      "min": [
        0.6942185759544373,
        -43.578460693359375
      ],
      "type": "VEC2"
    },
    {
      "bufferView": 1,
      "byteOffset": 3251376,
      "componentType": 5126,
      "count": 1346,
      "max": [
        7.693644046783447,
        -40.216060638427734
      ],
      "min": [
        0.6942185759544373,
        -43.578460693359375
      ],
      "type": "VEC2"
    },
    {
      "bufferView": 1,
      "byteOffset": 3262144,
      "componentType": 5126,
      "count": 1346,
      "max": [
        7.693644046783447,
        -40.216060638427734
      ],
      "min": [
        0.6942185759544373,
        -43.578460693359375
      ],
      "type": "VEC2"
    },
    {
      "bufferView": 0,
      "byteOffset": 1958100,
      "componentType": 5125,
      "count": 3672,
      "type": "SCALAR"
    },
    {
      "bufferView": 2,
      "byteOffset": 2833080,
      "componentType": 5126,
      "count": 1535,
      "max": [
        0.13112689554691315,
        1.413625955581665,
        -0.21794849634170532
      ],
      "min": [
        -0.40402349829673767,
        0.14220650494098663,
        -0.782136082649231
      ],
      "type": "VEC3"
    },
    {
      "bufferView": 2,
      "byteOffset": 2851500,
      "componentType": 5126,
      "count": 1535,
      "max": [
        1.0,
        1.0,
        1.0
      ],
      "min": [
        -1.0,
        -1.0,
        -1.0
      ],
      "type": "VEC3"
    },
    {
      "bufferView": 3,
      "byteOffset": 1643152,
      "componentType": 5126,
      "count": 1535,
      "max": [
        0.9771255254745483,
        0.9999249577522278,
        0.9988977909088135,
        -1.0
      ],
      "min": [
        -0.9912105798721313,
        -0.9999111890792847,
        -0.999995768070221,
        -1.0
      ],
      "type": "VEC4"
    },
    {
      "bufferView": 1,
      "byteOffset": 3272912,
      "componentType": 5126,
      "count": 1535,
      "max": [
        33.24079895019531,
        -72.74397277832031
      ],
      "min": [
        28.662769317626953,
        -78.34081268310547
      ],
      "type": "VEC2"
    },
    {
      "bufferView": 1,
      "byteOffset": 3285192,
      "componentType": 5126,
      "count": 1535,
      "max": [
        33.24079895019531,
        -72.74397277832031
      ],
      "min": [
        28.662769317626953,
        -78.34081268310547
      ],
      "type": "VEC2"
    },
    {
      "bufferView": 1,
      "byteOffset": 3297472,
      "componentType": 5126,
      "count": 1535,
      "max": [
        33.24079895019531,
        -72.74397277832031
      ],
      "min": [
        28.662769317626953,
        -78.34081268310547
      ],
      "type": "VEC2"
    },
    {
      "bufferView": 0,
      "byteOffset": 1972788,
      "componentType": 5125,
      "count": 5742,
      "type": "SCALAR"
    },
    {
      "bufferView": 2,
      "byteOffset": 2869920,
      "componentType": 5126,
      "count": 5749,
      "max": [
        0.43240460753440857,
        1.669005036354065,
        -0.20930999517440796
      ],
      "min": [
        -0.4533138871192932,
        -0.1165504977107048,
        -0.9189512729644775
      ],
      "type": "VEC3"
    },
    {
      "bufferView": 2,
      "byteOffset": 2938908,
      "componentType": 5126,
      "count": 5749,
      "max": [
        1.0,
        1.0,
        1.0
      ],
      "min": [
        -1.0,
        -1.0,
        -1.0
      ],
      "type": "VEC3"
    },
    {
      "bufferView": 3,
      "byteOffset": 1667712,
      "componentType": 5126,
      "count": 5749,
      "max": [
        0.9999998211860657,
        1.0,
        1.0,
        1.0
      ],
      "min": [
        -1.0,
        -1.0,
        -1.0,
        -1.0
      ],
      "type": "VEC4"
    },
    {
      "bufferView": 1,
      "byteOffset": 3309752,
      "componentType": 5126,
      "count": 5749,
      "max": [
        22.51367950439453,
        -58.1675910949707
      ],
      "min": [
        0.08932056277990341,
        -78.68446350097656
      ],
      "type": "VEC2"
    },
    {
      "bufferView": 1,
      "byteOffset": 3355744,
      "componentType": 5126,
      "count": 5749,
      "max": [
        22.51367950439453,
        -58.1675910949707
      ],
      "min": [
        0.08932056277990341,
        -78.68446350097656
      ],
      "type": "VEC2"
    },
    {
      "bufferView": 1,
      "byteOffset": 3401736,
      "componentType": 5126,
      "count": 5749,
      "max": [
        22.51367950439453,
        -58.1675910949707
      ],
      "min": [
        0.08932056277990341,
        -78.68446350097656
      ],
      "type": "VEC2"
    },
    {
      "bufferView": 1,
      "byteOffset": 3447728,
      "componentType": 5126,
      "count": 5749,
      "max": [
        22.51367950439453,
        -58.1675910949707
      ],
      "min": [
        0.08932056277990341,
        -78.68446350097656
      ],
      "type": "VEC2"
    },
    {
      "bufferView": 0,
      "byteOffset": 1995756,
      "componentType": 5125,
      "count": 22110,
      "type": "SCALAR"
    },
    {
      "bufferView": 2,
      "byteOffset": 3007896,
      "componentType": 5126,
      "count": 73,
      "max": [
        0.12813450396060944,
        0.8558561205863953,
        -0.7240517735481262
      ],
      "min": [
        -0.12813450396060944,
        0.8413270711898804,
        -0.8971086740493774
      ],
      "type": "VEC3"
    },
    {
      "bufferView": 2,
      "byteOffset": 3008772,
      "componentType": 5126,
      "count": 73,
      "max": [
        0.0,
        -1.0,
        0.0
      ],
      "min": [
        0.0,
        -1.0,
        0.0
      ],
      "type": "VEC3"
    },
    {
      "bufferView": 1,
      "byteOffset": 3493720,
      "componentType": 5126,
      "count": 73,
      "max": [
        0.9309133887290955,
        -0.009675979614257813
      ],
      "min": [
        0.06908717751502991,
        -0.48389995098114014
      ],
      "type": "VEC2"
    },
    {
      "bufferView": 0,
      "byteOffset": 2084196,
      "componentType": 5125,
      "count": 210,
      "type": "SCALAR"
    },
    {
      "bufferView": 2,
      "byteOffset": 3009648,
      "componentType": 5126,
      "count": 836,
      "max": [
        0.253944993019104,
        0.7054564952850342,
        -0.25545209646224976
      ],
      "min": [
        -0.253944993019104,
        0.14638330042362213,
        -0.8557044863700867
      ],
      "type": "VEC3"
    },
    {
      "bufferView": 2,
      "byteOffset": 3019680,
      "componentType": 5126,
      "count": 836,
      "max": [
        0.9574665427207947,
        0.9987139105796814,
        0.9784489274024963
      ],
      "min": [
        -0.9574665427207947,
        -0.7585955858230591,
        -0.9952173233032227
      ],
      "type": "VEC3"
    },
    {
      "bufferView": 3,
      "byteOffset": 1759696,
      "componentType": 5126,
      "count": 836,
      "max": [
        1.0,
        0.8903505206108093,
        0.517470121383667,
        -1.0
      ],
      "min": [
        -1.0,
        -0.9782215356826782,
        -0.5174698829650879,
        -1.0
      ],
      "type": "VEC4"
    },
    {
      "bufferView": 1,
      "byteOffset": 3494304,
      "componentType": 5126,
      "count": 836,
      "max": [
        9.894548416137695,
        -9.793939590454102
      ],
      "min": [
        2.5044469833374023,
        -13.750709533691406
      ],
      "type": "VEC2"
    },
    {
      "bufferView": 1,
      "byteOffset": 3500992,
      "componentType": 5126,
      "count": 836,
      "max": [
        9.894548416137695,
        -9.793939590454102
      ],
      "min": [
        2.5044469833374023,
        -13.750709533691406
      ],
      "type": "VEC2"
    },
    {
      "bufferView": 1,
      "byteOffset": 3507680,
      "componentType": 5126,
      "count": 836,
      "max": [
        9.894548416137695,
        -9.793939590454102
      ],
      "min": [
        2.5044469833374023,
        -13.750709533691406
      ],
      "type": "VEC2"
    },
    {
      "bufferView": 1,
      "byteOffset": 3514368,
      "componentType": 5126,
      "count": 836,
      "max": [
        9.894548416137695,
        -9.793939590454102
      ],
      "min": [
        2.5044469833374023,
        -13.750709533691406
      ],
      "type": "VEC2"
    },
    {
      "bufferView": 0,
      "byteOffset": 2085036,
      "componentType": 5125,
      "count": 3888,
      "type": "SCALAR"
    },
    {
      "bufferView": 2,
      "byteOffset": 3029712,
      "componentType": 5126,
      "count": 1324,
      "max": [
        0.27233079075813293,
        0.6900600790977478,
        -0.24778519570827484
      ],
      "min": [
        -0.27233079075813293,
        0.11807979643344879,
        -1.0435010194778442
      ],
      "type": "VEC3"
    },
    {
      "bufferView": 2,
      "byteOffset": 3045600,
      "componentType": 5126,
      "count": 1324,
      "max": [
        0.999812662601471,
        0.9998655319213867,
        0.9999459385871887
      ],
      "min": [
        -0.999812662601471,
        -0.9999181032180786,
        -0.999998927116394
      ],
      "type": "VEC3"
    },
    {
      "bufferView": 3,
      "byteOffset": 1773072,
      "componentType": 5126,
      "count": 1324,
      "max": [
        1.0,
        0.99996018409729,
        0.9920035600662231,
        -1.0
      ],
      "min": [
        -1.0,
        -0.9999592900276184,
        -0.9919963479042053,
        -1.0
      ],
      "type": "VEC4"
    },
    {
      "bufferView": 1,
      "byteOffset": 3521056,
      "componentType": 5126,
      "count": 1324,
      "max": [
        39.89657974243164,
        -61.29301071166992
      ],
      "min": [
        0.1034168004989624,
        -78.74376678466797
      ],
      "type": "VEC2"
    },
    {
      "bufferView": 1,
      "byteOffset": 3531648,
      "componentType": 5126,
      "count": 1324,
      "max": [
        39.89657974243164,
        -61.29301071166992
      ],
      "min": [
        0.1034168004989624,
        -78.74376678466797
      ],
      "type": "VEC2"
    },
    {
      "bufferView": 1,
      "byteOffset": 3542240,
      "componentType": 5126,
      "count": 1324,
      "max": [
        39.89657974243164,
        -61.29301071166992
      ],
      "min": [
        0.1034168004989624,
        -78.74376678466797
      ],
      "type": "VEC2"
    },
    {
      "bufferView": 1,
      "byteOffset": 3552832,
      "componentType": 5126,
      "count": 1324,
      "max": [
        39.89657974243164,
        -61.29301071166992
      ],
      "min": [
        0.1034168004989624,
        -78.74376678466797
      ],
      "type": "VEC2"
    },
    {
      "bufferView": 0,
      "byteOffset": 2100588,
      "componentType": 5125,
      "count": 6312,
      "type": "SCALAR"
    },
    {
      "bufferView": 2,
      "byteOffset": 3061488,
      "componentType": 5126,
      "count": 2598,
      "max": [
        0.4559352993965149,
        0.8665130734443665,
        -0.12576259672641754
      ],
      "min": [
        -0.4559352993965149,
        0.1195065975189209,
        -0.8227714896202087
      ],
      "type": "VEC3"
    },
    {
      "bufferView": 2,
      "byteOffset": 3092664,
      "componentType": 5126,
      "count": 2598,
      "max": [
        0.9999874830245972,
        0.9989615678787231,
        0.999891996383667
      ],
      "min": [
        -0.9999898672103882,
        -0.9970985651016235,
        -0.9999997615814209
      ],
      "type": "VEC3"
    },
    {
      "bufferView": 3,
      "byteOffset": 1794256,
      "componentType": 5126,
      "count": 2598,
      "max": [
        0.999993085861206,
        0.9996300339698792,
        0.9999279975891113,
        1.0
      ],
      "min": [
        -0.9999932646751404,
        -0.9999966621398926,
        -0.9999961853027344,
        -1.0
      ],
      "type": "VEC4"
    },
    {
      "bufferView": 1,
      "byteOffset": 3563424,
      "componentType": 5126,
      "count": 2598,
      "max": [
        11.434329986572266,
        -29.228559494018555
      ],
      "min": [
        0.22388149797916412,
        -46.81039047241211
      ],
      "type": "VEC2"
    },
    {
      "bufferView": 1,
      "byteOffset": 3584208,
      "componentType": 5126,
      "count": 2598,
      "max": [
        11.434329986572266,
        -29.228559494018555
      ],
      "min": [
        0.22388149797916412,
        -46.81039047241211
      ],
      "type": "VEC2"
    },
    {
      "bufferView": 1,
      "byteOffset": 3604992,
      "componentType": 5126,
      "count": 2598,
      "max": [
        11.434329986572266,
        -29.228559494018555
      ],
      "min": [
        0.22388149797916412,
        -46.81039047241211
      ],
      "type": "VEC2"
    },
    {
      "bufferView": 1,
      "byteOffset": 3625776,
      "componentType": 5126,
      "count": 2598,
      "max": [
        11.434329986572266,
        -29.228559494018555
      ],
      "min": [
        0.22388149797916412,
        -46.81039047241211
      ],
      "type": "VEC2"
    },
    {
      "bufferView": 0,
      "byteOffset": 2125836,
      "componentType": 5125,
      "count": 9813,
      "type": "SCALAR"
    },
    {
      "bufferView": 2,
      "byteOffset": 3123840,
      "componentType": 5126,
      "count": 10537,
      "max": [
        0.4559352993965149,
        1.669005036354065,
        -0.12468510121107101
      ],
      "min": [
        -0.4559352993965149,
        -0.11655040085315704,
        -1.0435010194778442
      ],
      "type": "VEC3"
    },
    {
      "bufferView": 2,
      "byteOffset": 3250284,
      "componentType": 5126,
      "count": 10537,
      "max": [
        1.0,
        1.0,
        1.0
      ],
      "min": [
        -1.0,
        -1.0,
        -1.0
      ],
      "type": "VEC3"
    },
    {
      "bufferView": 1,
      "byteOffset": 3646560,
      "componentType": 5126,
      "count": 10537,
      "max": [
        0.9971503019332886,
        -0.002691030502319336
      ],
      "min": [
        0.004574572201818228,
        -0.9989930391311646
      ],
      "type": "VEC2"
    },
    {
      "bufferView": 0,
      "byteOffset": 2165088,
      "componentType": 5125,
      "count": 31113,
      "type": "SCALAR"
    },
    {
      "bufferView": 2,
      "byteOffset": 3376728,
      "componentType": 5126,
      "count": 4884,
      "max": [
        0.2237945944070816,
        0.9686312079429626,
        -0.807166576385498
      ],
      "min": [
        -0.2237343043088913,
        0.12388289719820023,
        -1.0679609775543213
      ],
      "type": "VEC3"
    },
    {
      "bufferView": 2,
      "byteOffset": 3435336,
      "componentType": 5126,
      "count": 4884,
      "max": [
        0.9999996423721313,
        1.0,
        0.0020999410189688206
      ],
      "min": [
        -0.9999996423721313,
        -0.8709935545921326,
        -0.995766282081604
      ],
      "type": "VEC3"
    },
    {
      "bufferView": 1,
      "byteOffset": 3730856,
      "componentType": 5126,
      "count": 4884,
      "max": [
        0.706640899181366,
        -0.04396700859069824
      ],
      "min": [
        0.35519859194755554,
        -0.9560329914093018
      ],
      "type": "VEC2"
    },
    {
      "bufferView": 0,
      "byteOffset": 2289540,
      "componentType": 5125,
      "count": 25902,
      "type": "SCALAR"
    },
    {
      "bufferView": 2,
      "byteOffset": 3493944,
      "componentType": 5126,
      "count": 135,
      "max": [
        0.07378674298524857,
        0.9284279942512512,
        -0.7523365020751953
      ],
      "min": [
        -0.07957792282104492,
        0.8686891794204712,
        -0.9002041816711426
      ],
      "type": "VEC3"
    },
    {
      "bufferView": 2,
      "byteOffset": 3495564,
      "componentType": 5126,
      "count": 135,
      "max": [
        0.9141051173210144,
        0.9998784065246582,
        0.9997548460960388
      ],
      "min": [
        -0.9141044020652771,
        -0.9997666478157043,
        -0.9997565150260925
      ],
      "type": "VEC3"
    },
    {
      "bufferView": 3,
      "byteOffset": 1835824,
      "componentType": 5126,
      "count": 135,
      "max": [
        0.6012096405029297,
        0.999009907245636,
        0.985880434513092,
        -1.0
      ],
      "min": [
        -0.7758067846298218,
        -0.9526304006576538,
        -0.9778560400009155,
        -1.0
      ],
      "type": "VEC4"
    },
    {
      "bufferView": 1,
      "byteOffset": 3769928,
      "componentType": 5126,
      "count": 135,
      "max": [
        82.03471374511719,
        -274.97430419921875
      ],
      "min": [
        61.387290954589844,
        -280.7015075683594
      ],
      "type": "VEC2"
    },
    {
      "bufferView": 1,
      "byteOffset": 3771008,
      "componentType": 5126,
      "count": 135,
      "max": [
        82.03471374511719,
        -274.97430419921875
      ],
      "min": [
        61.387290954589844,
        -280.7015075683594
      ],
      "type": "VEC2"
    },
    {
      "bufferView": 1,
      "byteOffset": 3772088,
      "componentType": 5126,
      "count": 135,
      "max": [
        82.03471374511719,
        -274.97430419921875
      ],
      "min": [
        61.387290954589844,
        -280.7015075683594
      ],
      "type": "VEC2"
    },
    {
      "bufferView": 1,
      "byteOffset": 3773168,
      "componentType": 5126,
      "count": 135,
      "max": [
        82.03471374511719,
        -274.97430419921875
      ],
      "min": [
        61.387290954589844,
        -280.7015075683594
      ],
      "type": "VEC2"
    },
    {
      "bufferView": 0,
      "byteOffset": 2393148,
      "componentType": 5125,
      "count": 564,
      "type": "SCALAR"
    },
    {
      "bufferView": 2,
      "byteOffset": 3497184,
      "componentType": 5126,
      "count": 276,
      "max": [
        0.11531099677085876,
        0.9696469902992249,
        -0.7003501057624817
      ],
      "min": [
        -0.22195330262184143,
        0.8738524913787842,
        -0.8649123907089233
      ],
      "type": "VEC3"
    },
    {
      "bufferView": 2,
      "byteOffset": 3500496,
      "componentType": 5126,
      "count": 276,
      "max": [
        0.9990392327308655,
        0.9991928339004517,
        0.9989990592002869
      ],
      "min": [
        -0.9990392327308655,
        -0.9991968870162964,
        -0.9998334646224976
      ],
      "type": "VEC3"
    },
    {
      "bufferView": 1,
      "byteOffset": 3774248,
      "componentType": 5126,
      "count": 276,
      "max": [
        0.9274340867996216,
        -1.822227954864502
      ],
      "min": [
        0.13511580228805542,
        -1.995954990386963
      ],
      "type": "VEC2"
    },
    {
      "bufferView": 0,
      "byteOffset": 2395404,
      "componentType": 5125,
      "count": 1170,
      "type": "SCALAR"
    },
    {
      "bufferView": 2,
      "byteOffset": 3503808,
      "componentType": 5126,
      "count": 1484,
      "max": [
        0.11219140142202377,
        0.9410712122917175,
        -0.79875248670578
      ],
      "min": [
        -0.11472620069980621,
        0.869369626045227,
        -0.8696539998054504
      ],
      "type": "VEC3"
    },
    {
      "bufferView": 2,
      "byteOffset": 3521616,
      "componentType": 5126,
      "count": 1484,
      "max": [
        0.999969482421875,
        0.9999990463256836,
        0.9999996423721313
      ],
      "min": [
        -0.9999690055847168,
        -0.9999927282333374,
        -0.9999998807907104
      ],
      "type": "VEC3"
    },
    {
      "bufferView": 3,
      "byteOffset": 1837984,
      "componentType": 5126,
      "count": 1484,
      "max": [
        0.9999937415122986,
        0.9999067187309265,
        0.9999854564666748,
        -1.0
      ],
      "min": [
        -0.9999697208404541,
        -0.9997576475143433,
        -0.9999805688858032,
        -1.0
      ],
      "type": "VEC4"
    },
    {
      "bufferView": 1,
      "byteOffset": 3776456,
      "componentType": 5126,
      "count": 1484,
      "max": [
        43.805240631103516,
        -134.75270080566406
      ],
      "min": [
        23.80316925048828,
        -147.9824981689453
      ],
      "type": "VEC2"
    },
    {
      "bufferView": 1,
      "byteOffset": 3788328,
      "componentType": 5126,
      "count": 1484,
      "max": [
        43.805240631103516,
        -134.75270080566406
      ],
      "min": [
        23.80316925048828,
        -147.9824981689453
      ],
      "type": "VEC2"
    },
    {
      "bufferView": 1,
      "byteOffset": 3800200,
      "componentType": 5126,
      "count": 1484,
      "max": [
        43.805240631103516,
        -134.75270080566406
      ],
      "min": [
        23.80316925048828,
        -147.9824981689453
      ],
      "type": "VEC2"
    },
    {
      "bufferView": 1,
      "byteOffset": 3812072,
      "componentType": 5126,
      "count": 1484,
      "max": [
        43.805240631103516,
        -134.75270080566406
      ],
      "min": [
        23.80316925048828,
        -147.9824981689453
      ],
      "type": "VEC2"
    },
    {
      "bufferView": 0,
      "byteOffset": 2400084,
      "componentType": 5125,
      "count": 4722,
      "type": "SCALAR"
    },
    {
      "bufferView": 2,
      "byteOffset": 3539424,
      "componentType": 5126,
      "count": 14,
      "max": [
        0.4746839106082916,
        2.58079195022583,
        -0.18959909677505493
      ],
      "min": [
        -0.47465458512306213,
        2.485016107559204,
        -0.28049540519714355
      ],
      "type": "VEC3"
    },
    {
      "bufferView": 2,
      "byteOffset": 3539592,
      "componentType": 5126,
      "count": 14,
      "max": [
        0.2356017678976059,
        0.9754828810691833,
        0.49767810106277466
      ],
      "min": [
        -0.24558652937412262,
        0.867361843585968,
        0.025800194591283798
      ],
      "type": "VEC3"
    },
    {
      "bufferView": 3,
      "byteOffset": 1861728,
      "componentType": 5126,
      "count": 14,
      "max": [
        0.9994440078735352,
        0.14499987661838531,
        0.01525446493178606,
        1.0
      ],
      "min": [
        -0.9996595978736877,
        -0.24520274996757507,
        -0.09234476089477539,
        -1.0
      ],
      "type": "VEC4"
    },
    {
      "bufferView": 1,
      "byteOffset": 3823944,
      "componentType": 5126,
      "count": 14,
      "max": [
        195.31260681152344,
        -520.8018188476563
      ],
      "min": [
        138.3300018310547,
        -540.4793701171875
      ],
      "type": "VEC2"
    },
    {
      "bufferView": 1,
      "byteOffset": 3824056,
      "componentType": 5126,
      "count": 14,
      "max": [
        195.31260681152344,
        -520.8018188476563
      ],
      "min": [
        138.3300018310547,
        -540.4793701171875
      ],
      "type": "VEC2"
    },
    {
      "bufferView": 1,
      "byteOffset": 3824168,
      "componentType": 5126,
      "count": 14,
      "max": [
        195.31260681152344,
        -520.8018188476563
      ],
      "min": [
        138.3300018310547,
        -540.4793701171875
      ],
      "type": "VEC2"
    },
    {
      "bufferView": 0,
      "byteOffset": 2418972,
      "componentType": 5125,
      "count": 36,
      "type": "SCALAR"
    },
    {
      "bufferView": 2,
      "byteOffset": 3539760,
      "componentType": 5126,
      "count": 16,
      "max": [
        0.03964976966381073,
        1.7577489614486694,
        -0.7090587019920349
      ],
      "min": [
        -0.03964979946613312,
        1.6802430152893066,
        -0.7258188724517822
      ],
      "type": "VEC3"
    },
    {
      "bufferView": 2,
      "byteOffset": 3539952,
      "componentType": 5126,
      "count": 16,
      "max": [
        0.0,
        0.21030759811401367,
        -0.9776352643966675
      ],
      "min": [
        0.0,
        0.21019145846366882,
        -0.9776602387428284
      ],
      "type": "VEC3"
    },
    {
      "bufferView": 1,
      "byteOffset": 3824280,
      "componentType": 5126,
      "count": 16,
      "max": [
        1.0,
        0.0
      ],
      "min": [
        0.0,
        -1.0
      ],
      "type": "VEC2"
    },
    {
      "bufferView": 1,
      "byteOffset": 3824408,
      "componentType": 5126,
      "count": 16,
      "max": [
        1.0,
        0.0
      ],
      "min": [
        0.0,
        -1.0
      ],
      "type": "VEC2"
    },
    {
      "bufferView": 0,
      "byteOffset": 2419116,
      "componentType": 5125,
      "count": 24,
      "type": "SCALAR"
    }
  ],
  "asset": {
    "extras": {
      "author": "vecarz (https://sketchfab.com/heynic)",
      "license": "CC-BY-NC-SA-4.0 (http://creativecommons.org/licenses/by-nc-sa/4.0/)",
      "source": "https://sketchfab.com/3d-models/auto-union-type-c-streamliner-wwwvecarzcom-deb3c132d39d4a49bd34798ad3d9599c",
      "title": "Auto Union Type C Streamliner | www.vecarz.com"
    },
    "generator": "Sketchfab-0.6.0",
    "version": "2.0"
  },
  "bufferViews": [
    {
      "buffer": 0,
      "byteLength": 2419212,
      "name": "floatBufferViews",
      "target": 34963
    },
    {
      "buffer": 0,
      "byteLength": 3824536,
      "byteOffset": 2419212,
      "byteStride": 8,
      "name": "floatBufferViews",
      "target": 34962
    },
    {
      "buffer": 0,
      "byteLength": 3540144,
      "byteOffset": 6243748,
      "byteStride": 12,
      "name": "floatBufferViews",
      "target": 34962
    },
    {
      "buffer": 0,
      "byteLength": 1861952,
      "byteOffset": 9783892,
      "byteStride": 16,
      "name": "floatBufferViews",
      "target": 34962
    }
  ],
  "buffers": [
    {
      "byteLength": 11645844,
      "uri": "scene.bin"
    }
  ],
  "extensionsUsed": [
    "KHR_materials_specular",
    "KHR_materials_clearcoat",
    "KHR_materials_transmission"
  ],
  "images": [
    {
      "uri": "textures/Rims.001_baseColor.png"
    },
    {
      "uri": "textures/Rims.001_normal.png"
    },
    {
      "uri": "textures/Tire.001_baseColor.png"
    },
    {
      "uri": "textures/Mech.001_baseColor.png"
    },
    {
      "uri": "textures/Mech.001_normal.png"
    },
    {
      "uri": "textures/Black.001_baseColor.png"
    },
    {
      "uri": "textures/EXT_decals.001_baseColor.png"
    },
    {
      "uri": "textures/UNDERCARRIAGE.001_baseColor.png"
    },
    {
      "uri": "textures/LATCHES.001_baseColor.png"
    },
    {
      "uri": "textures/LOGO.001_baseColor.png"
    },
    {
      "uri": "textures/GLASS_IN.001_baseColor.png"
    },
    {
      "uri": "textures/INT_decals.001_baseColor.png"
    },
    {
      "uri": "textures/INT_decals.001_normal.png"
    },
    {
      "uri": "textures/Stitching.001_baseColor.png"
    },
    {
      "uri": "textures/INT_steering_wheel.001_baseColor.png"
    },
    {
      "uri": "textures/INT_stainless_steel_Steer.001_baseColor.png"
    },
    {
      "uri": "textures/INT_dark_metal.001_baseColor.png"
    },
    {
      "uri": "textures/INT_rubber.001_baseColor.png"
    },
    {
      "uri": "textures/INT_silver_paint.001_baseColor.png"
    },
    {
      "uri": "textures/INT_Glass_Dials.001_baseColor.png"
    },
    {
      "uri": "textures/INT_fabric.001_baseColor.png"
    },
    {
      "uri": "textures/INT_leather.001_baseColor.png"
    },
    {
      "uri": "textures/INT_brown_Metal.001_baseColor.png"
    },
    {
      "uri": "textures/INT_OCC_Aluminium.001_baseColor.png"
    },
    {
      "uri": "textures/GRILLE.001_baseColor.png"
    },
    {
      "uri": "textures/GRILLE.001_normal.png"
    },
    {
      "uri": "textures/Rivets.001_baseColor.png"
    }
  ],
  "materials": [
    {
      "extensions": {
        "KHR_materials_specular": {
          "specularColorFactor": [
            1.0,
            1.0,
            1.0
          ],
          "specularFactor": 1.0
        }
      },
      "name": "Rims.001",
      "normalTexture": {
        "index": 1
      },
      "pbrMetallicRoughness": {
        "baseColorTexture": {
          "index": 0
        },
        "roughnessFactor": 0.2
      }
    },
    {
      "doubleSided": true,
      "extensions": {
        "KHR_materials_clearcoat": {
          "clearcoatFactor": 1.0,
          "clearcoatRoughnessFactor": 0.278857992710073
        },
        "KHR_materials_specular": {
          "specularColorFactor": [
            1.0,
            1.0,
            1.0
          ],
          "specularFactor": 1.0
        }
      },
      "name": "Tire.001",
      "pbrMetallicRoughness": {
        "baseColorTexture": {
          "index": 2
        },
        "metallicFactor": 0.6019065962867696,
        "roughnessFactor": 0.7603832697394887
      }
    },
    {
      "doubleSided": true,
      "extensions": {
        "KHR_materials_specular": {
          "specularColorFactor": [
            1.0,
            1.0,
            1.0
          ],
          "specularFactor": 1.0
        }
      },
      "name": "Mech.001",
      "normalTexture": {
        "index": 4
      },
      "pbrMetallicRoughness": {
        "baseColorTexture": {
          "index": 3
        },
        "roughnessFactor": 0.1386670892711292
      }
    },
    {
      "doubleSided": true,
      "extensions": {
        "KHR_materials_specular": {
          "specularColorFactor": [
            1.0,
            1.0,
            1.0
          ],
          "specularFactor": 0.0
        }
      },
      "name": "Black.001",
      "pbrMetallicRoughness": {
        "baseColorTexture": {
          "index": 5
        },
        "metallicFactor": 0.0,
        "roughnessFactor": 0.9
      }
    },
    {
      "doubleSided": true,
      "extensions": {
        "KHR_materials_specular": {
          "specularColorFactor": [
            1.0,
            1.0,
            1.0
          ],
          "specularFactor": 0.0
        }
      },
      "name": "EXT_decals.001",
      "pbrMetallicRoughness": {
        "baseColorTexture": {
          "index": 6
        },
        "metallicFactor": 0.0,
        "roughnessFactor": 0.9
      }
    },
    {
      "doubleSided": true,
      "extensions": {
        "KHR_materials_clearcoat": {
          "clearcoatFactor": 0.4373346661627921,
          "clearcoatRoughnessFactor": 0.0
        },
        "KHR_materials_specular": {
          "specularColorFactor": [
            1.0,
            1.0,
            1.0
          ],
          "specularFactor": 1.0
        }
      },
      "name": "BODY.001",
      "normalTexture": {
        "index": 4
      },
      "pbrMetallicRoughness": {
        "baseColorFactor": [
          0.667162779707386,
          0.667162779707386,
          0.667162779707386,
          1.0
        ],
        "metallicFactor": 0.5531445429167022,
        "roughnessFactor": 0.5348587729029269
      }
    },
    {
      "doubleSided": true,
      "extensions": {
        "KHR_materials_specular": {
          "specularColorFactor": [
            1.0,
            1.0,
            1.0
          ],
          "specularFactor": 0.0
        }
      },
      "name": "UNDERCARRIAGE.001",
      "pbrMetallicRoughness": {
        "baseColorTexture": {
          "index": 7
        },
        "metallicFactor": 0.693335446355646,
        "roughnessFactor": 0.9
      }
    },
    {
      "doubleSided": true,
      "extensions": {
        "KHR_materials_specular": {
          "specularColorFactor": [
            1.0,
            1.0,
            1.0
          ],
          "specularFactor": 0.0
        }
      },
      "name": "LATCHES.001",
      "pbrMetallicRoughness": {
        "baseColorTexture": {
          "index": 8
        },
        "metallicFactor": 0.6567639063280954,
        "roughnessFactor": 0.3154295327376236
      }
    },
    {
      "alphaMode": "BLEND",
      "doubleSided": true,
      "extensions": {
        "KHR_materials_specular": {
          "specularColorFactor": [
            1.0,
            1.0,
            1.0
          ],
          "specularFactor": 0.0
        }
      },
      "name": "LOGO.001",
      "pbrMetallicRoughness": {
        "baseColorTexture": {
          "index": 9
        },
        "roughnessFactor": 0.059428752544769654
      }
    },
    {
      "alphaMode": "BLEND",
      "doubleSided": true,
      "extensions": {
        "KHR_materials_specular": {
          "specularColorFactor": [
            1.0,
            1.0,
            1.0
          ],
          "specularFactor": 1.0
        }
      },
      "name": "GLASS_IN.001",
      "pbrMetallicRoughness": {
        "baseColorFactor": [
          1.0,
          1.0,
          1.0,
          0.2
        ],
        "baseColorTexture": {
          "index": 10
        },
        "metallicFactor": 0.0,
        "roughnessFactor": 0.180447
      }
    },
    {
      "doubleSided": true,
      "extensions": {
        "KHR_materials_specular": {
          "specularColorFactor": [
            1.0,
            1.0,
            1.0
          ],
          "specularFactor": 0.2
        }
      },
      "name": "INT_decals.001",
      "normalTexture": {
        "index": 12
      },
      "pbrMetallicRoughness": {
        "baseColorTexture": {
          "index": 11
        },
        "roughnessFactor": 0.223607
      }
    },
    {
      "alphaMode": "BLEND",
      "doubleSided": true,
      "extensions": {
        "KHR_materials_specular": {
          "specularColorFactor": [
            1.0,
            1.0,
            1.0
          ],
          "specularFactor": 0.4
        }
      },
      "name": "Stitching.001",
      "pbrMetallicRoughness": {
        "baseColorFactor": [
          1.0,
          1.0,
          1.0,
          0.0
        ],
        "baseColorTexture": {
          "index": 13
        },
        "metallicFactor": 0.0,
        "roughnessFactor": 0.776393
      }
    },
    {
      "doubleSided": true,
      "extensions": {
        "KHR_materials_specular": {
          "specularColorFactor": [
            1.0,
            1.0,
            1.0
          ],
          "specularFactor": 1.0
        }
      },
      "name": "INT_chrome.001",
      "normalTexture": {
        "index": 4,
        "scale": 0.0,
        "texCoord": 1
      },
      "pbrMetallicRoughness": {
        "baseColorTexture": {
          "index": 3
        },
        "roughnessFactor": 0.858579
      }
    },
    {
      "doubleSided": true,
      "extensions": {
        "KHR_materials_specular": {
          "specularColorFactor": [
            1.0,
            1.0,
            1.0
          ],
          "specularFactor": 1.0
        }
      },
      "name": "INT_steering_wheel.001",
      "normalTexture": {
        "index": 4,
        "scale": 0.0
      },
      "pbrMetallicRoughness": {
        "baseColorTexture": {
          "index": 14
        },
        "roughnessFactor": 0.5226682595604101
      }
    },
    {
      "alphaMode": "BLEND",
      "doubleSided": true,
      "extensions": {
        "KHR_materials_specular": {
          "specularColorFactor": [
            1.0,
            1.0,
            1.0
          ],
          "specularFactor": 1.0
        }
      },
      "name": "INT_stainless_steel_Steer.001",
      "normalTexture": {
        "index": 4,
        "scale": 0.0
      },
      "pbrMetallicRoughness": {
        "baseColorFactor": [
          1.0,
          1.0,
          1.0,
          0.0
        ],
        "baseColorTexture": {
          "index": 15
        },
        "metallicFactor": 0.0,
        "roughnessFactor": 0.776393
      }
    },
    {
      "alphaMode": "BLEND",
      "doubleSided": true,
      "extensions": {
        "KHR_materials_specular": {
          "specularColorFactor": [
            1.0,
            1.0,
            1.0
          ],
          "specularFactor": 1.0
        }
      },
      "name": "INT_stainless_steel.001",
      "normalTexture": {
        "index": 4,
        "scale": 0.0,
        "texCoord": 1
      },
      "pbrMetallicRoughness": {
        "baseColorFactor": [
          1.0,
          1.0,
          1.0,
          0.0
        ],
        "baseColorTexture": {
          "index": 15
        },
        "metallicFactor": 0.0,
        "roughnessFactor": 0.776393
      }
    },
    {
      "doubleSided": true,
      "name": "INT_dark_metal.001",
      "normalTexture": {
        "index": 4,
        "scale": 0.0
      },
      "pbrMetallicRoughness": {
        "baseColorTexture": {
          "index": 16
        },
        "metallicFactor": 0.0,
        "roughnessFactor": 0.776393
      }
    },
    {
      "doubleSided": true,
      "extensions": {
        "KHR_materials_specular": {
          "specularColorFactor": [
            1.0,
            1.0,
            1.0
          ],
          "specularFactor": 1.0
        }
      },
      "name": "INT_rubber.001",
      "normalTexture": {
        "index": 4,
        "scale": 0.0,
        "texCoord": 1
      },
      "pbrMetallicRoughness": {
        "baseColorTexture": {
          "index": 17
        },
        "metallicFactor": 0.0,
        "roughnessFactor": 0.858579
      }
    },
    {
      "alphaMode": "BLEND",
      "doubleSided": true,
      "extensions": {
        "KHR_materials_specular": {
          "specularColorFactor": [
            1.0,
            1.0,
            1.0
          ],
          "specularFactor": 1.0
        }
      },
      "name": "INT_silver_paint.001",
      "normalTexture": {
        "index": 4,
        "scale": 0.0
      },
      "pbrMetallicRoughness": {
        "baseColorFactor": [
          1.0,
          1.0,
          1.0,
          0.0
        ],
        "baseColorTexture": {
          "index": 18
        },
        "metallicFactor": 0.0,
        "roughnessFactor": 0.858579
      }
    },
    {
      "alphaMode": "BLEND",
      "doubleSided": true,
      "extensions": {
        "KHR_materials_specular": {
          "specularColorFactor": [
            1.0,
            1.0,
            1.0
          ],
          "specularFactor": 1.0
        }
      },
      "name": "INT_Glass_Dials.001",
      "pbrMetallicRoughness": {
        "baseColorFactor": [
          1.0,
          1.0,
          1.0,
          0.3
        ],
        "baseColorTexture": {
          "index": 19
        },
        "roughnessFactor": 0.1
      }
    },
    {
      "alphaMode": "BLEND",
      "doubleSided": true,
      "extensions": {
        "KHR_materials_specular": {
          "specularColorFactor": [
            1.0,
            1.0,
            1.0
          ],
          "specularFactor": 1.0
        }
      },
      "name": "INT_fabric.001",
      "normalTexture": {
        "index": 4,
        "scale": 0.0
      },
      "pbrMetallicRoughness": {
        "baseColorFactor": [
          1.0,
          1.0,
          1.0,
          0.0
        ],
        "baseColorTexture": {
          "index": 20
        },
        "metallicFactor": 0.0,
        "roughnessFactor": 0.776393
      }
    },
    {
      "alphaMode": "BLEND",
      "doubleSided": true,
      "extensions": {
        "KHR_materials_specular": {
          "specularColorFactor": [
            1.0,
            1.0,
            1.0
          ],
          "specularFactor": 1.0
        }
      },
      "name": "INT_leather.001",
      "normalTexture": {
        "index": 4,
        "scale": 0.0
      },
      "pbrMetallicRoughness": {
        "baseColorFactor": [
          1.0,
          1.0,
          1.0,
          0.0
        ],
        "baseColorTexture": {
          "index": 21
        },
        "metallicFactor": 0.0,
        "roughnessFactor": 0.776393
      }
    },
    {
      "alphaMode": "BLEND",
      "doubleSided": true,
      "extensions": {
        "KHR_materials_specular": {
          "specularColorFactor": [
            1.0,
            1.0,
            1.0
          ],
          "specularFactor": 1.0
        }
      },
      "name": "INT_brown_Metal.001",
      "normalTexture": {
        "index": 4,
        "scale": 0.0
      },
      "pbrMetallicRoughness": {
        "baseColorFactor": [
          1.0,
          1.0,
          1.0,
          0.0
        ],
        "baseColorTexture": {
          "index": 22
        },
        "metallicFactor": 0.0,
        "roughnessFactor": 0.776393
      }
    },
    {
      "doubleSided": true,
      "extensions": {
        "KHR_materials_specular": {
          "specularColorFactor": [
            1.0,
            1.0,
            1.0
          ],
          "specularFactor": 0.5043824895466348
        }
      },
      "name": "IntLR.001",
      "pbrMetallicRoughness": {
        "baseColorFactor": [
          0.6019065962867696,
          0.6019065962867696,
          0.6019065962867696,
          1.0
        ],
        "baseColorTexture": {
          "index": 8
        },
        "roughnessFactor": 0.38247735612146627
      }
    },
    {
      "alphaMode": "BLEND",
      "doubleSided": true,
      "extensions": {
        "KHR_materials_clearcoat": {
          "clearcoatFactor": 1.0,
          "clearcoatRoughnessFactor": 0.0
        },
        "KHR_materials_specular": {
          "specularColorFactor": [
            1.0,
            1.0,
            1.0
          ],
          "specularFactor": 1.0
        },
        "KHR_materials_transmission": {
          "transmissionFactor": 1.0
        }
      },
      "name": "GLASS_OUT.001",
      "pbrMetallicRoughness": {
        "baseColorFactor": [
          0.6532147217859161,
          0.7708784440379874,
          0.7497600349623798,
          0.25
        ],
        "baseColorTexture": {
          "index": 10
        },
        "roughnessFactor": 0.0
      }
    },
    {
      "doubleSided": true,
      "extensions": {
        "KHR_materials_specular": {
          "specularColorFactor": [
            1.0,
            1.0,
            1.0
          ],
          "specularFactor": 1.0
        }
      },
      "name": "INT_OCC_Aluminium.001",
      "normalTexture": {
        "index": 4
      },
      "pbrMetallicRoughness": {
        "baseColorTexture": {
          "index": 23
        },
        "roughnessFactor": 0.223607
      }
    },
    {
      "doubleSided": true,
      "extensions": {
        "KHR_materials_specular": {
          "specularColorFactor": [
            1.0,
            1.0,
            1.0
          ],
          "specularFactor": 0.04
        }
      },
      "name": "INT_OCC_Plastic.001",
      "pbrMetallicRoughness": {
        "baseColorTexture": {
          "index": 22
        },
        "metallicFactor": 0.0,
        "roughnessFactor": 0.683772
      }
    },
    {
      "doubleSided": true,
      "extensions": {
        "KHR_materials_specular": {
          "specularColorFactor": [
            1.0,
            1.0,
            1.0
          ],
          "specularFactor": 1.0
        }
      },
      "name": "INT_OCC_Metal.001",
      "normalTexture": {
        "index": 4
      },
      "pbrMetallicRoughness": {
        "baseColorFactor": [
          0.5,
          0.5,
          0.5,
          1.0
        ],
        "baseColorTexture": {
          "index": 23
        },
        "roughnessFactor": 0.2
      }
    },
    {
      "alphaMode": "BLEND",
      "doubleSided": true,
      "extensions": {
        "KHR_materials_specular": {
          "specularColorFactor": [
            1.0,
            1.0,
            1.0
          ],
          "specularFactor": 1.0
        }
      },
      "name": "GRILLE.001",
      "normalTexture": {
        "index": 25
      },
      "pbrMetallicRoughness": {
        "baseColorTexture": {
          "index": 24
        },
        "metallicFactor": 0.6872401896843876,
        "roughnessFactor": 0.7481927563969718
      }
    },
    {
      "doubleSided": true,
      "extensions": {
        "KHR_materials_specular": {
          "specularColorFactor": [
            1.0,
            1.0,
            1.0
          ],
          "specularFactor": 0.04
        }
      },
      "name": "Rivets.001",
      "pbrMetallicRoughness": {
        "baseColorTexture": {
          "index": 26
        },
        "metallicFactor": 0.0,
        "roughnessFactor": 0.841886
      }
    }
  ],
  "meshes": [
    {
      "name": "Object_0",
      "primitives": [
        {
          "attributes": {
            "NORMAL": 1,
            "POSITION": 0,
            "TANGENT": 2,
            "TEXCOORD_0": 3,
            "TEXCOORD_1": 4,
            "TEXCOORD_2": 5,
            "TEXCOORD_3": 6
          },
          "indices": 7,
          "material": 0,
          "mode": 4
        }
      ]
    },
    {
      "name": "Object_1",
      "primitives": [
        {
          "attributes": {
            "NORMAL": 9,
            "POSITION": 8,
            "TEXCOORD_0": 10,
            "TEXCOORD_1": 11
          },
          "indices": 12,
          "material": 1,
          "mode": 4
        }
      ]
    },
    {
      "name": "Object_2",
      "primitives": [
        {
          "attributes": {
            "NORMAL": 14,
            "POSITION": 13,
            "TANGENT": 15,
            "TEXCOORD_0": 16,
            "TEXCOORD_1": 17,
            "TEXCOORD_2": 18,
            "TEXCOORD_3": 19
          },
          "indices": 20,
          "material": 2,
          "mode": 4
        }
      ]
    },
    {
      "name": "Object_3",
      "primitives": [
        {
          "attributes": {
            "NORMAL": 22,
            "POSITION": 21,
            "TEXCOORD_0": 23
          },
          "indices": 24,
          "material": 3,
          "mode": 4
        }
      ]
    },
    {
      "name": "Object_4",
      "primitives": [
        {
          "attributes": {
            "NORMAL": 26,
            "POSITION": 25,
            "TEXCOORD_0": 27
          },
          "indices": 28,
          "material": 4,
          "mode": 4
        }
      ]
    },
    {
      "name": "Object_5",
      "primitives": [
        {
          "attributes": {
            "NORMAL": 30,
            "POSITION": 29,
            "TANGENT": 31,
            "TEXCOORD_0": 32,
            "TEXCOORD_1": 33,
            "TEXCOORD_2": 34,
            "TEXCOORD_3": 35
          },
          "indices": 36,
          "material": 5,
          "mode": 4
        }
      ]
    },
    {
      "name": "Object_6",
      "primitives": [
        {
          "attributes": {
            "NORMAL": 38,
            "POSITION": 37,
            "TEXCOORD_0": 39
          },
          "indices": 40,
          "material": 6,
          "mode": 4
        }
      ]
    },
    {
      "name": "Object_7",
      "primitives": [
        {
          "attributes": {
            "NORMAL": 42,
            "POSITION": 41,
            "TEXCOORD_0": 43
          },
          "indices": 44,
          "material": 7,
          "mode": 4
        }
      ]
    },
    {
      "name": "Object_8",
      "primitives": [
        {
          "attributes": {
            "NORMAL": 46,
            "POSITION": 45,
            "TEXCOORD_0": 47
          },
          "indices": 48,
          "material": 8,
          "mode": 4
        }
      ]
    },
    {
      "name": "Object_9",
      "primitives": [
        {
          "attributes": {
            "NORMAL": 50,
            "POSITION": 49,
            "TEXCOORD_0": 51
          },
          "indices": 52,
          "material": 9,
          "mode": 4
        }
      ]
    },
    {
      "name": "Object_10",
      "primitives": [
        {
          "attributes": {
            "NORMAL": 54,
            "POSITION": 53,
            "TANGENT": 55,
            "TEXCOORD_0": 56,
            "TEXCOORD_1": 57,
            "TEXCOORD_2": 58
          },
          "indices": 59,
          "material": 10,
          "mode": 4
        }
      ]
    },
    {
      "name": "Object_11",
      "primitives": [
        {
          "attributes": {
            "NORMAL": 61,
            "POSITION": 60,
            "TEXCOORD_0": 62,
            "TEXCOORD_1": 63
          },
          "indices": 64,
          "material": 11,
          "mode": 4
        }
      ]
    },
    {
      "name": "Object_12",
      "primitives": [
        {
          "attributes": {
            "NORMAL": 66,
            "POSITION": 65,
            "TANGENT": 67,
            "TEXCOORD_0": 68,
            "TEXCOORD_1": 69,
            "TEXCOORD_2": 70
          },
          "indices": 71,
          "material": 12,
          "mode": 4
        }
      ]
    },
    {
      "name": "Object_13",
      "primitives": [
        {
          "attributes": {
            "NORMAL": 73,
            "POSITION": 72,
            "TANGENT": 74,
            "TEXCOORD_0": 75,
            "TEXCOORD_1": 76,
            "TEXCOORD_2": 77,
            "TEXCOORD_3": 78
          },
          "indices": 79,
          "material": 13,
          "mode": 4
        }
      ]
    },
    {
      "name": "Object_14",
      "primitives": [
        {
          "attributes": {
            "NORMAL": 81,
            "POSITION": 80,
            "TANGENT": 82,
            "TEXCOORD_0": 83,
            "TEXCOORD_1": 84,
            "TEXCOORD_2": 85,
            "TEXCOORD_3": 86
          },
          "indices": 87,
          "material": 14,
          "mode": 4
        }
      ]
    },
    {
      "name": "Object_15",
      "primitives": [
        {
          "attributes": {
            "NORMAL": 89,
            "POSITION": 88,
            "TANGENT": 90,
            "TEXCOORD_0": 91,
            "TEXCOORD_1": 92,
            "TEXCOORD_2": 93
          },
          "indices": 94,
          "material": 15,
          "mode": 4
        }
      ]
    },
    {
      "name": "Object_16",
      "primitives": [
        {
          "attributes": {
            "NORMAL": 96,
            "POSITION": 95,
            "TANGENT": 97,
            "TEXCOORD_0": 98,
            "TEXCOORD_1": 99,
            "TEXCOORD_2": 100
          },
          "indices": 101,
          "material": 16,
          "mode": 4
        }
      ]
    },
    {
      "name": "Object_17",
      "primitives": [
        {
          "attributes": {
            "NORMAL": 103,
            "POSITION": 102,
            "TANGENT": 104,
            "TEXCOORD_0": 105,
            "TEXCOORD_1": 106,
            "TEXCOORD_2": 107
          },
          "indices": 108,
          "material": 17,
          "mode": 4
        }
      ]
    },
    {
      "name": "Object_18",
      "primitives": [
        {
          "attributes": {
            "NORMAL": 110,
            "POSITION": 109,
            "TANGENT": 111,
            "TEXCOORD_0": 112,
            "TEXCOORD_1": 113,
            "TEXCOORD_2": 114,
            "TEXCOORD_3": 115
          },
          "indices": 116,
          "material": 18,
          "mode": 4
        }
      ]
    },
    {
      "name": "Object_19",
      "primitives": [
        {
          "attributes": {
            "NORMAL": 118,
            "POSITION": 117,
            "TEXCOORD_0": 119
          },
          "indices": 120,
          "material": 19,
          "mode": 4
        }
      ]
    },
    {
      "name": "Object_20",
      "primitives": [
        {
          "attributes": {
            "NORMAL": 122,
            "POSITION": 121,
            "TANGENT": 123,
            "TEXCOORD_0": 124,
            "TEXCOORD_1": 125,
            "TEXCOORD_2": 126,
            "TEXCOORD_3": 127
          },
          "indices": 128,
          "material": 20,
          "mode": 4
        }
      ]
    },
    {
      "name": "Object_21",
      "primitives": [
        {
          "attributes": {
            "NORMAL": 130,
            "POSITION": 129,
            "TANGENT": 131,
            "TEXCOORD_0": 132,
            "TEXCOORD_1": 133,
            "TEXCOORD_2": 134,
            "TEXCOORD_3": 135
          },
          "indices": 136,
          "material": 21,
          "mode": 4
        }
      ]
    },
    {
      "name": "Object_22",
      "primitives": [
        {
          "attributes": {
            "NORMAL": 138,
            "POSITION": 137,
            "TANGENT": 139,
            "TEXCOORD_0": 140,
            "TEXCOORD_1": 141,
            "TEXCOORD_2": 142,
            "TEXCOORD_3": 143
          },
          "indices": 144,
          "material": 22,
          "mode": 4
        }
      ]
    },
    {
      "name": "Object_23",
      "primitives": [
        {
          "attributes": {
            "NORMAL": 146,
            "POSITION": 145,
            "TEXCOORD_0": 147
          },
          "indices": 148,
          "material": 23,
          "mode": 4
        }
      ]
    },
    {
      "name": "Object_24",
      "primitives": [
        {
          "attributes": {
            "NORMAL": 150,
            "POSITION": 149,
            "TEXCOORD_0": 151
          },
          "indices": 152,
          "material": 24,
          "mode": 4
        }
      ]
    },
    {
      "name": "Object_25",
      "primitives": [
        {
          "attributes": {
            "NORMAL": 154,
            "POSITION": 153,
            "TANGENT": 155,
            "TEXCOORD_0": 156,
            "TEXCOORD_1": 157,
            "TEXCOORD_2": 158,
            "TEXCOORD_3": 159
          },
          "indices": 160,
          "material": 25,
          "mode": 4
        }
      ]
    },
    {
      "name": "Object_26",
      "primitives": [
        {
          "attributes": {
            "NORMAL": 162,
            "POSITION": 161,
            "TEXCOORD_0": 163
          },
          "indices": 164,
          "material": 26,
          "mode": 4
        }
      ]
    },
    {
      "name": "Object_27",
      "primitives": [
        {
          "attributes": {
            "NORMAL": 166,
            "POSITION": 165,
            "TANGENT": 167,
            "TEXCOORD_0": 168,
            "TEXCOORD_1": 169,
            "TEXCOORD_2": 170,
            "TEXCOORD_3": 171
          },
          "indices": 172,
          "material": 27,
          "mode": 4
        }
      ]
    },
    {
      "name": "Object_28",
      "primitives": [
        {
          "attributes": {
            "NORMAL": 174,
            "POSITION": 173,
            "TANGENT": 175,
            "TEXCOORD_0": 176,
            "TEXCOORD_1": 177,
            "TEXCOORD_2": 178
          },
          "indices": 179,
          "material": 28,
          "mode": 4
        }
      ]
    },
    {
      "name": "Object_29",
      "primitives": [
        {
          "attributes": {
            "NORMAL": 181,
            "POSITION": 180,
            "TEXCOORD_0": 182,
            "TEXCOORD_1": 183
          },
          "indices": 184,
          "material": 29,
          "mode": 4
        }
      ]
    }
  ],
  "nodes": [
    {
      "children": [
        1
      ],
      "matrix": [
        1.0,
        0.0,
        0.0,
        0.0,
        0.0,
        0.003479297272861226,
        -0.9999939203262329,
        0.0,
        0.0,
        0.9999939203262329,
        0.003479297272861226,
        0.0,
        0.0,
        0.0,
        0.0,
        1.0
      ],
      "name": "Sketchfab_model"
    },
    {
      "children": [
        2
      ],
      "name": "root"
    },
    {
      "children": [
        3
      ],
      "matrix": [
        1.0,
        0.0,
        0.0,
        0.0,
        0.0,
        2.220446049250313e-16,
        1.0,
        0.0,
        0.0,
        -1.0,
        2.220446049250313e-16,
        0.0,
        0.0,
        0.0,
        0.0,
        1.0
      ],
      "name": "GLTF_SceneRootNode"
    },
    {
      "children": [
        4
      ],
      "matrix": [
        1.0,
        0.0,
        0.0,
        0.0,
        0.0,
        2.220446049250313e-16,
        -1.0,
        0.0,
        0.0,
        1.0,
        2.220446049250313e-16,
        0.0,
        0.0,
        0.0,
        0.0,
        1.0
      ],
      "name": "Sketchfab_model_0"
    },
    {
      "children": [
        5
      ],
      "name": "root_1"
    },
    {
      "children": [
        6
      ],
      "matrix": [
        1.0,
        0.0,
        0.0,
        0.0,
        0.0,
        2.220446049250313e-16,
        1.0,
        0.0,
        0.0,
        -1.0,
        2.220446049250313e-16,
        0.0,
        0.0,
        0.0,
        0.0,
        1.0
      ],
      "name": "GLTF_SceneRootNode_2"
    },
    {
      "children": [
        7,
        9,
        11,
        13,
        15,
        17,
        19,
        21,
        23,
        25,
        27,
        29,
        31,
        33,
        35,
        37,
        39,
        41,
        43,
        45,
        47,
        49,
        51,
        53,
        55,
        57,
        59,
        61,
        63,
        65
      ],
      "matrix": [
        1.0,
        0.0,
        0.0,
        0.0,
        0.0,
        0.0,
        1.0,
        0.0,
        0.0,
        -1.0,
        0.0,
        0.0,
        0.0,
        0.0,
        0.0,
        1.0
      ],
      "name": "auto_union_type_c_streamliner_0_3"
    },
    {
      "children": [
        8
      ],
      "name": "Object_4_4"
    },
    {
      "mesh": 0,
      "name": "Object_8"
    },
    {
      "children": [
        10
      ],
      "name": "Object_5_5"
    },
    {
      "mesh": 1,
      "name": "Object_10"
    },
    {
      "children": [
        12
      ],
      "name": "Object_6_6"
    },
    {
      "mesh": 2,
      "name": "Object_12"
    },
    {
      "children": [
        14
      ],
      "name": "Object_7_7"
    },
    {
      "mesh": 3,
      "name": "Object_14"
    },
    {
      "children": [
        16
      ],
      "name": "Object_8_8"
    },
    {
      "mesh": 4,
      "name": "Object_16"
    },
    {
      "children": [
        18
      ],
      "name": "Object_9_9"
    },
    {
      "mesh": 5,
      "name": "Object_18"
    },
    {
      "children": [
        20
      ],
      "name": "Object_10_10"
    },
    {
      "mesh": 6,
      "name": "Object_20"
    },
    {
      "children": [
        22
      ],
      "name": "Object_11_11"
    },
    {
      "mesh": 7,
      "name": "Object_22"
    },
    {
      "children": [
        24
      ],
      "name": "Object_12_12"
    },
    {
      "mesh": 8,
      "name": "Object_24"
    },
    {
      "children": [
        26
      ],
      "name": "Object_13_13"
    },
    {
      "mesh": 9,
      "name": "Object_26"
    },
    {
      "children": [
        28
      ],
      "name": "Object_14_14"
    },
    {
      "mesh": 10,
      "name": "Object_28"
    },
    {
      "children": [
        30
      ],
      "name": "Object_15_15"
    },
    {
      "mesh": 11,
      "name": "Object_30"
    },
    {
      "children": [
        32
      ],
      "name": "Object_16_16"
    },
    {
      "mesh": 12,
      "name": "Object_32"
    },
    {
      "children": [
        34
      ],
      "name": "Object_17_17"
    },
    {
      "mesh": 13,
      "name": "Object_34"
    },
    {
      "children": [
        36
      ],
      "name": "Object_18_18"
    },
    {
      "mesh": 14,
      "name": "Object_36"
    },
    {
      "children": [
        38
      ],
      "name": "Object_19_19"
    },
    {
      "mesh": 15,
      "name": "Object_38"
    },
    {
      "children": [
        40
      ],
      "name": "Object_20_20"
    },
    {
      "mesh": 16,
      "name": "Object_40"
    },
    {
      "children": [
        42
      ],
      "name": "Object_21_21"
    },
    {
      "mesh": 17,
      "name": "Object_42"
    },
    {
      "children": [
        44
      ],
      "name": "Object_22_22"
    },
    {
      "mesh": 18,
      "name": "Object_44"
    },
    {
      "children": [
        46
      ],
      "name": "Object_23_23"
    },
    {
      "mesh": 19,
      "name": "Object_46"
    },
    {
      "children": [
        48
      ],
      "name": "Object_24_24"
    },
    {
      "mesh": 20,
      "name": "Object_48"
    },
    {
      "children": [
        50
      ],
      "name": "Object_25_25"
    },
    {
      "mesh": 21,
      "name": "Object_50"
    },
    {
      "children": [
        52
      ],
      "name": "Object_26_26"
    },
    {
      "mesh": 22,
      "name": "Object_52"
    },
    {
      "children": [
        54
      ],
      "name": "Object_27_27"
    },
    {
      "mesh": 23,
      "name": "Object_54"
    },
    {
      "children": [
        56
      ],
      "name": "Object_28_28"
    },
    {
      "mesh": 24,
      "name": "Object_56"
    },
    {
      "children": [
        58
      ],
      "name": "Object_29_29"
    },
    {
      "mesh": 25,
      "name": "Object_58"
    },
    {
      "children": [
        60
      ],
      "name": "Object_30_30"
    },
    {
      "mesh": 26,
      "name": "Object_60"
    },
    {
      "children": [
        62
      ],
      "name": "Object_31_31"
    },
    {
      "mesh": 27,
      "name": "Object_62"
    },
    {
      "children": [
        64
      ],
      "name": "Object_32_32"
    },
    {
      "mesh": 28,
      "name": "Object_64"
    },
    {
      "children": [
        66
      ],
      "name": "Object_33_33"
    },
    {
      "mesh": 29,
      "name": "Object_66"
    }
  ],
  "samplers": [
    {
      "magFilter": 9729,
      "minFilter": 9987,
      "wrapS": 10497,
      "wrapT": 10497
    }
  ],
  "scene": 0,
  "scenes": [
    {
      "name": "Sketchfab_Scene",
      "nodes": [
        0
      ]
    }
  ],
  "textures": [
    {
      "sampler": 0,
      "source": 0
    },
    {
      "sampler": 0,
      "source": 1
    },
    {
      "sampler": 0,
      "source": 2
    },
    {
      "sampler": 0,
      "source": 3
    },
    {
      "sampler": 0,
      "source": 4
    },
    {
      "sampler": 0,
      "source": 5
    },
    {
      "sampler": 0,
      "source": 6
    },
    {
      "sampler": 0,
      "source": 7
    },
    {
      "sampler": 0,
      "source": 8
    },
    {
      "sampler": 0,
      "source": 9
    },
    {
      "sampler": 0,
      "source": 10
    },
    {
      "sampler": 0,
      "source": 11
    },
    {
      "sampler": 0,
      "source": 12
    },
    {
      "sampler": 0,
      "source": 13
    },
    {
      "sampler": 0,
      "source": 14
    },
    {
      "sampler": 0,
      "source": 15
    },
    {
      "sampler": 0,
      "source": 16
    },
    {
      "sampler": 0,
      "source": 17
    },
    {
      "sampler": 0,
      "source": 18
    },
    {
      "sampler": 0,
      "source": 19
    },
    {
      "sampler": 0,
      "source": 20
    },
    {
      "sampler": 0,
      "source": 21
    },
    {
      "sampler": 0,
      "source": 22
    },
    {
      "sampler": 0,
      "source": 23
    },
    {
      "sampler": 0,
      "source": 24
    },
    {
      "sampler": 0,
      "source": 25
    },
    {
      "sampler": 0,
      "source": 26
    }
  ]
}
