{
  "accessors": [
    {
      "bufferView": 2,
      "componentType": 5126,
      "count": 2214,
      "max": [
        1.0001025199890137,
        1.8036619424819946,
        0.9209262132644653
      ],
      "min": [
        -1.0001025199890137,
        -2.220494031906128,
        -0.19372212886810303
      ],
      "type": "VEC3"
    },
    {
      "bufferView": 2,
      "byteOffset": 26568,
      "componentType": 5126,
      "count": 2214,
      "max": [
        1.0,
        1.0,
        1.0
      ],
      "min": [
        -1.0,
        -1.0,
        -1.0
      ],
      "type": "VEC3"
    },
    {
      "bufferView": 1,
      "componentType": 5126,
      "count": 2214,
      "max": [
        0.3635995090007782,
        0.9944422841072083
      ],
      "min": [
        0.004937015473842621,
        0.5106586217880249
      ],
      "type": "VEC2"
    },
    {
      "bufferView": 0,
      "componentType": 5125,
      "count": 3336,
      "type": "SCALAR"
    },
    {
      "bufferView": 2,
      "byteOffset": 53136,
      "componentType": 5126,
      "count": 64,
      "max": [
        0.7891299724578857,
        1.7679094076156616,
        0.3751850128173828
      ],
      "min": [
        -0.7891299724578857,
        -2.212542772293091,
        0.12348425388336182
      ],
      "type": "VEC3"
    },
    {
      "bufferView": 2,
      "byteOffset": 53904,
      "componentType": 5126,
      "count": 64,
      "max": [
        0.1890881210565567,
        0.9932414293289185,
        0.02740115486085415
      ],
      "min": [
        -0.18908822536468506,
        -0.9819605946540833,
        -7.48055572330486e-06
      ],
      "type": "VEC3"
    },
    {
      "bufferView": 1,
      "byteOffset": 17712,
      "componentType": 5126,
      "count": 64,
      "max": [
        0.9621871709823608,
        0.6580461263656616
      ],
      "min": [
        0.15609122812747955,
        0.020489215850830078
      ],
      "type": "VEC2"
    },
    {
      "bufferView": 0,
      "byteOffset": 13344,
      "componentType": 5125,
      "count": 96,
      "type": "SCALAR"
    }
  ],
  "asset": {
    "extras": {
      "author": "ville.eriksen (https://sketchfab.com/ville.eriksen)",
      "license": "CC-BY-4.0 (http://creativecommons.org/licenses/by/4.0/)",
      "source": "https://sketchfab.com/3d-models/low-poly-80s-sports-car-eaf8991e95604532803a954c3fd3d5cb",
      "title": "Low Poly 80's Sports Car"
    },
    "generator": "Sketchfab-12.63.0",
    "version": "2.0"
  },
  "bufferViews": [
    {
      "buffer": 0,
      "byteLength": 13728,
      "name": "floatBufferViews",
      "target": 34963
    },
    {
      "buffer": 0,
      "byteLength": 18224,
      "byteOffset": 13728,
      "byteStride": 8,
      "name": "floatBufferViews",
      "target": 34962
    },
    {
      "buffer": 0,
      "byteLength": 54672,
      "byteOffset": 31952,
      "byteStride": 12,
      "name": "floatBufferViews",
      "target": 34962
    }
  ],
  "buffers": [
    {
      "byteLength": 86624,
      "uri": "scene.bin"
    }
  ],
  "extensionsRequired": [
    "KHR_materials_pbrSpecularGlossiness"
  ],
  "extensionsUsed": [
    "KHR_materials_pbrSpecularGlossiness"
  ],
  "images": [
    {
      "uri": "textures/BaseColor_diffuse.png"
    }
  ],
  "materials": [
    {
      "extensions": {
        "KHR_materials_pbrSpecularGlossiness": {
          "diffuseFactor": [
            1.0,
            1.0,
            1.0,
            1.0
          ],
          "diffuseTexture": {
            "index": 0
          },
          "glossinessFactor": 0.4539926041446677,
          "specularFactor": [
            0.02062179575109167,
            0.02062179575109167,
            0.02062179575109167
          ]
        }
      },
      "name": "BaseColor"
    },
    {
      "emissiveFactor": [
        1.0,
        1.0,
        1.0
      ],
      "emissiveTexture": {
        "index": 0
      },
      "extensions": {
        "KHR_materials_pbrSpecularGlossiness": {
          "diffuseFactor": [
            0.0,
            0.0,
            0.0,
            1.0
          ],
          "glossinessFactor": 0.19595917942265426,
          "specularFactor": [
            0.0,
            0.0,
            0.0
          ]
        }
      },
      "name": "Emission"
    }
  ],
  "meshes": [
    {
      "name": "Car_BaseColor_0",
      "primitives": [
        {
          "attributes": {
            "NORMAL": 1,
            "POSITION": 0,
            "TEXCOORD_0": 2
          },
          "indices": 3,
          "material": 0,
          "mode": 4
        }
      ]
    },
    {
      "name": "Car_Emission_0",
      "primitives": [
        {
          "attributes": {
            "NORMAL": 5,
            "POSITION": 4,
            "TEXCOORD_0": 6
          },
          "indices": 7,
          "material": 1,
          "mode": 4
        }
      ]
    }
  ],
  "nodes": [
    {
      "children": [
        1
      ],
      "matrix": [
        1.0,
        0.0,
        0.0,
        0.0,
        0.0,
        2.220446049250313e-16,
        -1.0,
        0.0,
        0.0,
        1.0,
        2.220446049250313e-16,
        0.0,
        0.0,
        0.0,
        0.0,
        1.0
      ],
      "name": "Sketchfab_model"
    },
    {
      "children": [
        2
      ],
      "matrix": [
        1.0,
        0.0,
        0.0,
        0.0,
        0.0,
        0.0,
        1.0,
        0.0,
        0.0,
        -1.0,
        0.0,
        0.0,
        0.0,
        0.0,
        0.0,
        1.0
      ],
      "name": "cc840eced46b4a1b97ba0593795888c3.fbx"
    },
    {
      "children": [
        3
      ],
      "name": "RootNode"
    },
    {
      "children": [
        4,
        5
      ],
      "matrix": [
        100.0,
        0.0,
        0.0,
        0.0,
        0.0,
        -1.629206793918314e-05,
        -99.99999999999868,
        0.0,
        0.0,
        99.99999999999868,
        -1.629206793918314e-05,
        0.0,
        0.0,
        0.0,
        0.0,
        1.0
      ],
      "name": "Car"
    },
    {
      "mesh": 0,
      "name": "Car_BaseColor_0"
    },
    {
      "mesh": 1,
      "name": "Car_Emission_0"
    }
  ],
  "samplers": [
    {
      "magFilter": 9729,
      "minFilter": 9987,
      "wrapS": 10497,
      "wrapT": 10497
    }
  ],
  "scene": 0,
  "scenes": [
    {
      "name": "Sketchfab_Scene",
      "nodes": [
        0
      ]
    }
  ],
  "textures": [
    {
      "sampler": 0,
      "source": 0
    }
  ]
}
